<svg style="position: absolute; width: 0; height: 0; overflow: hidden;" version="1.1" xmlns="http://www.w3.org/2000/svg" xmlns:xlink="http://www.w3.org/1999/xlink">
<defs>
<symbol id="im-arrow-right" viewBox="0 0 32 32">
<title>arrow-right</title>
<path d="M21.473 5.128c-0.429-0.452-1.152-0.452-1.604 0-0.429 0.429-0.429 1.152 0 1.593l8.144 8.144h-26.883c-0.621 0-1.13 0.497-1.13 1.13 0 0.621 0.497 1.141 1.13 1.141h26.883l-8.144 8.133c-0.429 0.452-0.429 1.175 0 1.604 0.452 0.452 1.175 0.452 1.604 0l10.075-10.076c0.452-0.429 0.452-1.152 0-1.593l-10.075-10.075z"></path>
</symbol>
<symbol id="im-arrow-left" viewBox="0 0 32 32">
<title>arrow-left</title>
<path d="M10.527 26.872c0.429 0.452 1.152 0.452 1.604 0 0.429-0.429 0.429-1.152 0-1.593l-8.144-8.144h26.883c0.621 0 1.13-0.497 1.13-1.13 0-0.621-0.497-1.141-1.13-1.141h-26.883l8.144-8.133c0.429-0.452 0.429-1.175 0-1.604-0.452-0.452-1.175-0.452-1.604 0l-10.075 10.075c-0.452 0.429-0.452 1.152 0 1.593l10.075 10.076z"></path>
</symbol>
<symbol id="im-arrow-up" viewBox="0 0 32 32">
<title>arrow-up</title>
<path d="M5.128 10.527c-0.452 0.429-0.452 1.152 0 1.604 0.429 0.429 1.152 0.429 1.593 0l8.144-8.144v26.883c0 0.621 0.497 1.13 1.13 1.13 0.621 0 1.141-0.497 1.141-1.13v-26.883l8.133 8.144c0.452 0.429 1.175 0.429 1.604 0 0.452-0.452 0.452-1.175 0-1.604l-10.076-10.076c-0.429-0.452-1.152-0.452-1.593 0l-10.076 10.076z"></path>
</symbol>
<symbol id="im-arrow-down" viewBox="0 0 32 32">
<title>arrow-down</title>
<path d="M26.872 21.473c0.452-0.429 0.452-1.152 0-1.604-0.429-0.429-1.152-0.429-1.593 0l-8.144 8.144v-26.883c0-0.621-0.497-1.13-1.13-1.13-0.621 0-1.141 0.497-1.141 1.13v26.883l-8.133-8.144c-0.452-0.429-1.175-0.429-1.604 0-0.452 0.452-0.452 1.175 0 1.604l10.075 10.075c0.429 0.452 1.152 0.452 1.593 0l10.075-10.075z"></path>
</symbol>
<symbol id="im-angle-right" viewBox="0 0 32 32">
<title>angle-right</title>
<path d="M22.464 15.418l-10.607-10.607c-0.311-0.311-0.83-0.311-1.153 0l-1.199 1.211c-0.311 0.311-0.311 0.83 0 1.153l8.82 8.82-8.831 8.831c-0.311 0.311-0.311 0.83 0 1.153l1.211 1.211c0.311 0.311 0.83 0.311 1.153 0l9.373-9.373c0.012-0.012 0.023-0.023 0.035-0.035l1.211-1.211c0.311-0.311 0.311-0.83-0.012-1.153z"></path>
</symbol>
<symbol id="im-angle-left" viewBox="0 0 32 32">
<title>angle-left</title>
<path d="M9.521 16.582l10.606 10.606c0.311 0.311 0.83 0.311 1.153 0l1.199-1.211c0.311-0.311 0.311-0.83 0-1.153l-8.82-8.82 8.831-8.831c0.311-0.311 0.311-0.83 0-1.153l-1.211-1.211c-0.311-0.311-0.83-0.311-1.153 0l-9.373 9.373c-0.012 0.012-0.023 0.023-0.035 0.035l-1.211 1.211c-0.311 0.311-0.311 0.83 0.012 1.153z"></path>
</symbol>
<symbol id="im-angle-up" viewBox="0 0 32 32">
<title>angle-up</title>
<path d="M15.487 10.293l-9.343 9.343c-0.274 0.274-0.274 0.731 0 1.015l1.066 1.056c0.274 0.274 0.731 0.274 1.015 0l7.769-7.769 7.779 7.779c0.274 0.274 0.731 0.274 1.015 0l1.066-1.066c0.274-0.274 0.274-0.731 0-1.015l-8.256-8.256c-0.010-0.010-0.020-0.020-0.031-0.031l-1.066-1.066c-0.274-0.274-0.731-0.274-1.015 0.010z"></path>
</symbol>
<symbol id="im-angle-down" viewBox="0 0 32 32">
<title>angle-down</title>
<path d="M16.513 21.707l9.343-9.343c0.274-0.274 0.274-0.731 0-1.015l-1.066-1.056c-0.274-0.274-0.731-0.274-1.015 0l-7.769 7.769-7.779-7.779c-0.274-0.274-0.731-0.274-1.016 0l-1.066 1.066c-0.274 0.274-0.274 0.731 0 1.015l8.256 8.256c0.010 0.010 0.020 0.020 0.031 0.031l1.066 1.066c0.274 0.274 0.731 0.274 1.016-0.010z"></path>
</symbol>
<symbol id="im-check" viewBox="0 0 32 32">
<title>check</title>
<path d="M26.208 9.337l-1.125-1.125c-0.326-0.326-0.799-0.326-1.125 0l-10.861 11.176c-0.158 0.158-0.405 0.158-0.563 0l-4.423-4.749-0.079-0.079c-0.326-0.326-0.799-0.326-1.125 0l-1.125 1.125c-0.158 0.158-0.236 0.405-0.236 0.563s0.079 0.405 0.236 0.563c0 0 0.158 0.248 0.169 0.248l6.269 6.753c0.158 0.158 0.326 0.236 0.563 0.236s0.405-0.079 0.563-0.236l12.864-13.348c0.326-0.326 0.326-0.799 0-1.125z"></path>
</symbol>
<symbol id="im-close" viewBox="0 0 32 32">
<title>close</title>
<path d="M18.052 16l7.668-7.668c0.28-0.28 0.28-0.731 0-1.001l-1.051-1.051c-0.28-0.28-0.731-0.28-1.001 0l-7.668 7.668-7.668-7.668c-0.28-0.28-0.731-0.28-1.001 0l-1.051 1.051c-0.28 0.28-0.28 0.731 0 1.001l7.668 7.668-7.668 7.668c-0.28 0.28-0.28 0.731 0 1.001l1.051 1.051c0.28 0.28 0.731 0.28 1.001 0l7.668-7.668 7.668 7.668c0.28 0.28 0.731 0.28 1.001 0l1.051-1.051c0.28-0.28 0.28-0.731 0-1.001l-7.668-7.668z"></path>
</symbol>
<symbol id="im-remove" viewBox="0 0 32 32">
<title>remove</title>
<path d="M17.642 16l6.134-6.134c0.224-0.224 0.224-0.585 0-0.801l-0.841-0.841c-0.224-0.224-0.585-0.224-0.801 0l-6.134 6.134-6.134-6.134c-0.224-0.224-0.585-0.224-0.801 0l-0.841 0.841c-0.224 0.224-0.224 0.585 0 0.801l6.134 6.134-6.134 6.134c-0.224 0.224-0.224 0.585 0 0.801l0.841 0.841c0.224 0.224 0.585 0.224 0.801 0l6.134-6.134 6.134 6.134c0.224 0.224 0.585 0.224 0.801 0l0.841-0.841c0.224-0.224 0.224-0.585 0-0.801l-6.134-6.134z"></path>
</symbol>
<symbol id="im-avatar-male" viewBox="0 0 32 32">
<title>avatar-male</title>
<path d="M15.992 0c-8.823 0-15.992 7.169-15.992 15.992s7.169 15.992 15.992 15.992c8.823 0 15.992-7.169 15.992-15.992s-7.169-15.992-15.992-15.992zM9.633 28.28c3.227-1.669 3.847-4.197 3.974-5.007 0.159-1.129-0.079-2.019-0.684-2.48-0.159-0.159-0.509-0.938-0.795-2.353-0.095-0.461-0.35-0.874-0.731-1.16l-0.064-0.048c-0.223-0.175-0.382-0.429-0.429-0.715l-0.064-0.382c-0.048-0.238-0.016-0.477 0.095-0.699l0.238-0.509c0.127-0.254 0.143-0.54 0.048-0.811-0.795-2.353-0.747-4.133 0.111-5.278 1.399-1.844 4.594-1.685 4.626-1.685 0.016 0 0.048 0 0.064 0h0.016c0.016 0 0.048 0 0.064 0s1.939-0.095 3.465 0.715c1.924 1.017 2.337 3.068 1.272 6.231-0.095 0.27-0.079 0.556 0.048 0.811l0.238 0.509c0.111 0.223 0.143 0.461 0.095 0.699l-0.064 0.382c-0.048 0.286-0.207 0.541-0.429 0.715l-0.064 0.048c-0.382 0.286-0.636 0.699-0.731 1.16-0.286 1.415-0.636 2.178-0.795 2.353-0.604 0.445-0.843 1.351-0.684 2.464 0.111 0.811 0.747 3.322 3.942 5.007-1.924 1.002-4.101 1.574-6.406 1.574-2.289 0.016-4.451-0.541-6.359-1.542zM24.576 26.849c-2.432-0.874-3.354-2.273-3.704-3.020-0.318-0.715-0.302-1.224-0.27-1.431 0.334-0.286 0.954-1.065 1.462-3.465l0.016-0.016c0.652-0.509 1.097-1.24 1.24-2.051l0.064-0.382c0.127-0.684 0.032-1.383-0.27-2.003l-0.064-0.127c0.636-2.082 0.715-3.879 0.223-5.341-0.445-1.335-1.351-2.369-2.671-3.068-1.924-1.033-4.165-0.986-4.562-0.97-0.54-0.032-4.419-0.095-6.422 2.512-1.272 1.669-1.478 3.974-0.588 6.867l-0.064 0.127c-0.302 0.62-0.397 1.319-0.27 2.003l0.064 0.382c0.143 0.827 0.588 1.542 1.24 2.051l0.016 0.016c0.509 2.4 1.129 3.163 1.463 3.465 0.032 0.191 0.048 0.715-0.286 1.431-0.35 0.763-1.288 2.162-3.752 3.020-3.211-2.543-5.294-6.47-5.294-10.873 0-7.63 6.2-13.83 13.83-13.83s13.83 6.2 13.83 13.83c0.032 4.419-2.035 8.346-5.23 10.873z"></path>
</symbol>
<symbol id="im-avatar-female" viewBox="0 0 32 32">
<title>avatar-female</title>
<path d="M15.992 0c-8.823 0-15.992 7.169-15.992 15.992s7.169 15.992 15.992 15.992 15.992-7.169 15.992-15.992-7.169-15.992-15.992-15.992zM9.776 28.36c2.178-1.765 3.227-3.163 3.275-3.243 0.223-0.286 0.27-0.684 0.143-1.017-0.127-0.35-0.413-0.604-0.779-0.684-1.765-0.397-2.973-1.653-3.561-2.416 1.669-2.13 2.591-4.785 2.591-7.503v-0.175c0-2.512 2.035-4.546 4.546-4.546s4.546 2.035 4.546 4.546v0.191c0 2.718 0.922 5.373 2.591 7.503-0.572 0.747-1.78 2.003-3.561 2.416-0.35 0.079-0.652 0.334-0.779 0.684s-0.079 0.731 0.143 1.017c0.048 0.064 1.113 1.478 3.275 3.243-1.876 0.954-3.99 1.478-6.232 1.478-2.21-0.016-4.324-0.541-6.2-1.494zM24.179 27.151c-1.097-0.827-1.924-1.606-2.512-2.194 2.448-1.192 3.688-3.37 3.736-3.481 0.223-0.382 0.175-0.874-0.111-1.208l-0.286-0.35c-1.478-1.796-2.305-4.070-2.305-6.406v-0.175c0-3.688-3.004-6.692-6.708-6.692-3.688 0-6.692 3.004-6.692 6.692v0.175c0 2.337-0.827 4.61-2.321 6.406l-0.286 0.35c-0.286 0.35-0.334 0.827-0.111 1.208 0.064 0.111 1.304 2.305 3.752 3.481-0.572 0.588-1.415 1.351-2.512 2.194-3.434-2.528-5.659-6.581-5.659-11.159 0-7.63 6.216-13.846 13.846-13.846s13.846 6.216 13.846 13.846c-0.016 4.578-2.241 8.648-5.675 11.159z"></path>
</symbol>
<symbol id="im-bell" viewBox="0 0 32 32">
<title>bell</title>
<path d="M30.922 23.145c-2.957-2.094-4.989-5.113-6.037-8.963-0.816-2.988-0.708-5.374-0.708-5.405s0-0.077 0-0.108c0-4.497-3.665-8.162-8.162-8.162h-0.046c-4.497 0-8.162 3.665-8.162 8.162 0 0.031 0 0.077 0 0.108 0 0.015 0.108 2.418-0.708 5.39-1.047 3.865-3.080 6.884-6.037 8.963-0.755 0.524-1.063 1.478-0.785 2.356s1.093 1.463 2.002 1.463h8.839c0.015 1.294 0.539 2.464 1.478 3.311 0.878 0.785 2.048 1.232 3.295 1.232h0.185c1.247 0 2.418-0.431 3.295-1.232 0.939-0.847 1.463-2.017 1.478-3.295 0 0 0-0.015 0-0.015h8.839c0.909 0 1.725-0.585 2.002-1.463 0.308-0.862-0.015-1.817-0.77-2.341zM16.108 29.397h-0.2c-1.463 0-2.633-0.986-2.664-2.433h5.498c0 1.448-1.186 2.433-2.633 2.433zM2.31 24.87c8.193-5.806 7.623-16.2 7.623-16.2 0-3.326 2.726-6.052 6.052-6.052h0.046c3.326 0 6.052 2.726 6.052 6.052 0 0-0.57 10.395 7.623 16.2z"></path>
</symbol>
<symbol id="im-bin" viewBox="0 0 32 32">
<title>bin</title>
<path d="M22.637 32h-13.258c-2.432 0-4.403-1.971-4.403-4.403v-18.392c0-0.604 0.493-1.081 1.081-1.081h19.887c0.604 0 1.081 0.493 1.081 1.081v18.392c0 2.432-1.971 4.403-4.387 4.403zM7.138 10.285v17.311c0 1.224 1.001 2.226 2.225 2.226h13.258c1.224 0 2.226-1.002 2.226-2.226v-17.311h-17.709zM27.597 7.138h-23.193c-0.604 0-1.081-0.493-1.081-1.081v-3.322c0-0.604 0.493-1.081 1.081-1.081h5.341l1.351-1.335c0.207-0.207 0.477-0.318 0.763-0.318h8.282c0.286 0 0.556 0.111 0.763 0.318l1.335 1.335h5.357c0.604 0 1.081 0.493 1.081 1.081v3.322c0 0.604-0.477 1.081-1.081 1.081zM5.484 4.976h21.031v-1.145h-4.721c-0.286 0-0.556-0.111-0.763-0.318l-1.335-1.335h-7.392l-1.335 1.335c-0.207 0.207-0.477 0.318-0.763 0.318h-4.721v1.145z"></path>
<path d="M16.008 26.516c-0.604 0-1.081-0.493-1.081-1.081v-12.145c0-0.604 0.493-1.081 1.081-1.081 0.604 0 1.081 0.493 1.081 1.081v12.145c0 0.604-0.493 1.081-1.081 1.081z"></path>
<path d="M11.573 26.516c-0.604 0-1.081-0.493-1.081-1.081v-12.145c0-0.604 0.493-1.081 1.081-1.081s1.081 0.493 1.081 1.081v12.145c0 0.604-0.493 1.081-1.081 1.081z"></path>
<path d="M20.427 26.516c-0.604 0-1.081-0.493-1.081-1.081v-12.145c0-0.604 0.493-1.081 1.081-1.081s1.081 0.493 1.081 1.081v12.145c0.016 0.604-0.477 1.081-1.081 1.081z"></path>
</symbol>
<symbol id="im-calendar" viewBox="0 0 32 32">
<title>calendar</title>
<path d="M30.363 4.896h-4.833v-3.847c0-0.572-0.477-1.049-1.049-1.049s-1.049 0.477-1.049 1.049v3.847h-15.054v-3.847c0-0.572-0.477-1.049-1.049-1.049s-1.049 0.477-1.049 1.049v3.847h-4.833c-0.572 0-1.049 0.477-1.049 1.049v24.99c0 0.572 0.477 1.049 1.049 1.049h28.916c0.572 0 1.049-0.477 1.049-1.049v-24.99c0-0.572-0.461-1.049-1.049-1.049zM29.313 29.902h-26.818v-15.547h26.818v15.547zM29.313 12.256h-26.818v-5.262h3.783v1.892c0 0.572 0.477 1.049 1.049 1.049s1.049-0.477 1.049-1.049v-1.892h15.054v1.892c0 0.572 0.477 1.049 1.049 1.049s1.049-0.477 1.049-1.049v-1.892h3.783v5.262z"></path>
</symbol>
<symbol id="im-camera" viewBox="0 0 32 32">
<title>camera</title>
<path d="M15.993 11.835c-1.697 0-3.157 0.612-4.353 1.808s-1.808 2.67-1.808 4.353c0 1.697 0.612 3.157 1.808 4.353s2.67 1.808 4.353 1.808c1.697 0 3.157-0.612 4.353-1.808v0c1.196-1.196 1.808-2.67 1.808-4.353 0-1.697-0.612-3.157-1.808-4.353s-2.656-1.808-4.353-1.808zM19.011 21.027c-0.848 0.848-1.836 1.252-3.018 1.252s-2.17-0.417-3.018-1.252c-0.848-0.848-1.252-1.836-1.252-3.018s0.417-2.169 1.252-3.018c0.848-0.848 1.836-1.252 3.018-1.252s2.17 0.417 3.018 1.252c0.848 0.848 1.252 1.836 1.252 3.018 0.014 1.182-0.403 2.169-1.252 3.018z"></path>
<path d="M30.554 7.468c0 0 0 0 0 0-0.96-0.96-2.142-1.46-3.505-1.46h-2.851l-0.57-1.53c-0.264-0.681-0.751-1.279-1.432-1.752-0.695-0.473-1.432-0.723-2.183-0.723h-8.024c-0.751 0-1.474 0.25-2.169 0.723-0.681 0.473-1.168 1.071-1.432 1.766l-0.57 1.516h-2.851c-1.363 0-2.545 0.487-3.505 1.46-0.974 0.973-1.46 2.156-1.46 3.518v14.046c0 1.363 0.487 2.545 1.46 3.505 0.96 0.96 2.142 1.46 3.505 1.46h22.070c1.363 0 2.545-0.487 3.505-1.46 0.96-0.96 1.46-2.142 1.46-3.505v-14.046c0-1.363-0.487-2.545-1.446-3.518zM30.109 25.033c0 0.848-0.292 1.558-0.904 2.169-0.598 0.598-1.307 0.904-2.169 0.904h-22.070c-0.848 0-1.558-0.292-2.17-0.904-0.598-0.598-0.904-1.307-0.904-2.169v-14.046c0-0.848 0.292-1.558 0.904-2.169 0.598-0.598 1.307-0.904 2.17-0.904h3.518c0.389 0 0.751-0.25 0.89-0.612l0.793-2.128c0.125-0.334 0.376-0.626 0.751-0.89 0.362-0.264 0.723-0.389 1.085-0.389h8.024c0.362 0 0.709 0.125 1.085 0.389s0.626 0.556 0.751 0.876l0.793 2.128c0.139 0.376 0.487 0.612 0.89 0.612h3.491c0.848 0 1.558 0.292 2.169 0.904 0.598 0.598 0.904 1.307 0.904 2.169v14.060z"></path>
<path d="M7.44 11.459c0 1.121-0.909 2.030-2.030 2.030s-2.030-0.909-2.030-2.030c0-1.121 0.909-2.030 2.030-2.030s2.030 0.909 2.030 2.030z"></path>
</symbol>
<symbol id="im-cart" viewBox="0 0 32 32">
<title>cart</title>
<path d="M27.287 21.063c1.971 0 3.577-1.606 3.577-3.577v-5.739c0-0.54-0.413-1.002-0.954-1.065l-21.778-2.655v-5.103c0-0.445-0.286-0.858-0.7-1.017l-4.705-1.765c-0.556-0.207-1.176 0.080-1.383 0.636s0.079 1.176 0.636 1.383l4.006 1.494v19.314c0 1.955 1.574 3.561 3.529 3.577-0.254 0.509-0.397 1.081-0.397 1.685 0 2.114 1.717 3.831 3.831 3.831s3.831-1.717 3.831-3.831c0-0.604-0.143-1.176-0.397-1.685h6.232c-0.254 0.509-0.397 1.081-0.397 1.685 0 2.114 1.717 3.831 3.831 3.831s3.831-1.717 3.831-3.831c0-2.035-1.59-3.704-3.593-3.831-0.079-0.016-0.143-0.032-0.223-0.032h-16.517c-0.779 0-1.415-0.636-1.415-1.415v-1.908h19.155zM12.948 29.918c-0.922 0-1.669-0.747-1.669-1.669s0.747-1.669 1.669-1.669 1.669 0.747 1.669 1.669c0 0.922-0.747 1.669-1.669 1.669zM27.748 28.248c0 0.922-0.747 1.669-1.669 1.669s-1.669-0.747-1.669-1.669c0-0.922 0.747-1.669 1.669-1.669 0.906-0.016 1.669 0.731 1.669 1.669zM28.717 12.701v4.769c0 0.779-0.636 1.415-1.415 1.415h-19.171v-8.695l20.586 2.512z"></path>
</symbol>
<symbol id="im-comment" viewBox="0 0 32 32">
<title>comment</title>
<path d="M1.733 32c-0.143 0-0.286-0.032-0.429-0.095-0.397-0.175-0.652-0.556-0.652-0.986v-27.231c0-2.035 1.653-3.688 3.704-3.688h23.305c2.035 0 3.688 1.653 3.688 3.688v18.059c0 2.035-1.653 3.688-3.688 3.688h-18.52l-6.677 6.247c-0.207 0.223-0.461 0.318-0.731 0.318zM4.356 2.146c-0.858 0-1.542 0.699-1.542 1.542v24.751l5.166-4.849c0.207-0.191 0.461-0.286 0.731-0.286h18.933c0.858 0 1.542-0.7 1.542-1.542v-18.075c0-0.858-0.7-1.542-1.542-1.542h-23.289z"></path>
</symbol>
<symbol id="im-diamond" viewBox="0 0 32 32">
<title>diamond</title>
<path d="M31.81 10.891l-5.087-9.107c-0.175-0.307-0.482-0.482-0.848-0.482h-19.75c-0.351 0-0.672 0.19-0.848 0.482l-5.087 9.107c-0.19 0.336-0.146 0.775 0.088 1.082l14.984 18.39c0.015 0.015 0.029 0.029 0.044 0.058v0l0.015 0.015c0.015 0.015 0.029 0.029 0.058 0.044 0.015 0 0.015 0.015 0.029 0.015 0.015 0.015 0.044 0.029 0.058 0.044 0.015 0 0.015 0.015 0.029 0.015 0.015 0.015 0.029 0.015 0.044 0.029l0.015 0.015c0 0 0.015 0 0.015 0.015 0.015 0.015 0.044 0.015 0.058 0.029 0.015 0 0.029 0.015 0.044 0.015v0 0c0.015 0 0.015 0 0.029 0 0.029 0.015 0.058 0.015 0.102 0.029 0.015 0 0.029 0 0.044 0 0.044 0 0.073 0.015 0.117 0.015h0.029c0.044 0 0.073 0 0.117-0.015 0.015 0 0.029 0 0.044 0 0.029 0 0.073-0.015 0.102-0.029 0.015 0 0.015 0 0.029 0v0 0c0.015 0 0.029-0.015 0.029-0.015 0.015-0.015 0.044-0.015 0.058-0.029 0 0 0.015 0 0.015-0.015 0 0 0.015 0 0.015-0.015 0.015-0.015 0.029-0.015 0.044-0.029 0.015 0 0.015-0.015 0.029-0.015 0.015-0.015 0.044-0.029 0.058-0.044 0.015 0 0.015-0.015 0.029-0.015 0.015-0.015 0.029-0.029 0.058-0.044v0c0 0 0.015 0 0.015-0.015v0c0.015-0.015 0.029-0.029 0.044-0.058l0.015-0.015 15.028-18.361c0.249-0.322 0.278-0.746 0.088-1.096zM17.908 3.216l2.748 7.178h-9.297l2.748-7.178c-0.015 0 3.801 0 3.801 0zM20.729 12.338l-4.722 14.311-4.707-14.311h9.429zM9.254 12.338l4.195 12.747-10.365-12.747h6.169zM22.761 12.338h6.169l-10.365 12.747 4.195-12.747zM29.31 10.394h-6.593l-2.748-7.178h5.321l4.020 7.178zM6.695 3.216h5.321l-2.734 7.178h-6.608l4.020-7.178z"></path>
</symbol>
<symbol id="im-user" viewBox="0 0 28 28" fill="none">
<title>user</title>
<path d="M2.33301 25.0056C4.45422 19.8334 4.64513 15.9445 10.0966 15.9445H11.8785V15.3028C11.8785 14.4862 11.3482 13.7862 10.6057 13.3195C9.46028 12.6195 8.69664 11.4334 8.69664 10.0723V6.26115C8.69664 4.08337 10.6057 2.33337 12.9815 2.33337H15.0179C17.3936 2.33337 19.3027 4.08337 19.3027 6.26115V10.0723C19.3027 11.4334 18.5391 12.6389 17.3936 13.3389C16.6512 13.7862 16.1209 14.4862 16.1209 15.3028V15.9445H17.9027C23.3542 15.9445 23.5451 19.8334 25.6663 25.0056" stroke="#161616" stroke-width="1.5" stroke-miterlimit="10" stroke-linecap="round" stroke-linejoin="round" />
</symbol>
<symbol id="im-heart" viewBox="0 0 32 32">
<title>heart</title>
<path d="M28.461 5.376c-1.545-1.558-3.622-2.414-5.815-2.414s-4.27 0.857-5.815 2.414l-0.818 0.818-0.831-0.831c-1.558-1.558-3.634-2.427-5.828-2.427s-4.258 0.857-5.802 2.414-2.414 3.609-2.414 5.815 0.87 4.258 2.427 5.815l11.838 11.838c0.156 0.156 0.376 0.247 0.597 0.247 0.208 0 0.428-0.078 0.597-0.247l11.851-11.812c1.558-1.558 2.414-3.622 2.414-5.815s-0.844-4.27-2.401-5.815zM27.254 15.812l-11.254 11.215-11.228-11.228c-1.233-1.246-1.908-2.869-1.908-4.621s0.675-3.388 1.908-4.608c1.22-1.22 2.869-1.908 4.608-1.908 1.752 0 3.388 0.688 4.621 1.908l1.428 1.428c0.325 0.325 0.87 0.325 1.194 0l1.415-1.415c1.233-1.233 2.882-1.908 4.621-1.908s3.375 0.688 4.608 1.908c1.233 1.233 1.908 2.869 1.908 4.621-0.013 1.739-0.688 3.362-1.921 4.608z"></path>
</symbol>
<symbol id="im-heart-filled" viewBox="0 0 32 32">
<title>heart-filled</title>
<path d="M28.461 5.376c-1.545-1.558-3.622-2.414-5.815-2.414s-4.27 0.857-5.815 2.414l-0.818 0.818-0.831-0.831c-1.558-1.558-3.634-2.427-5.828-2.427s-4.258 0.857-5.802 2.414-2.414 3.609-2.414 5.815 0.87 4.258 2.427 5.815l11.838 11.838c0.156 0.156 0.376 0.247 0.597 0.247 0.208 0 0.428-0.078 0.597-0.247l11.851-11.812c1.558-1.558 2.414-3.622 2.414-5.815s-0.844-4.27-2.401-5.815z"></path>
</symbol>
<symbol id="im-filters" viewBox="0 0 32 32">
<title>filters</title>
<path d="M13.846 32c-0.254 0-0.525-0.048-0.763-0.159-0.747-0.318-1.224-1.033-1.224-1.828v-13.576c0-0.191-0.079-0.382-0.207-0.525l-10.873-11.795c-0.668-0.731-0.843-1.749-0.445-2.639 0.413-0.922 1.272-1.478 2.257-1.478h26.818c0.986 0 1.844 0.556 2.241 1.462s0.223 1.923-0.445 2.639l-10.857 11.811c-0.127 0.143-0.207 0.334-0.207 0.525v8.378c0 0.954-0.445 1.494-0.954 2.098l-0.079 0.095c0 0-0.016 0.016-0.016 0.016l-3.783 4.34c-0.016 0.016-0.032 0.048-0.048 0.064-0.397 0.366-0.89 0.572-1.415 0.572zM2.591 2.13c-0.175 0-0.254 0.095-0.286 0.191-0.032 0.079-0.064 0.223 0.064 0.334l10.873 11.795c0 0 0 0 0 0 0.493 0.54 0.763 1.24 0.763 1.971v13.194l3.545-4.070c0.445-0.541 0.461-0.572 0.461-0.731v-8.378c0-0.731 0.27-1.431 0.763-1.971l10.873-11.795c0.111-0.127 0.095-0.254 0.048-0.334-0.032-0.079-0.111-0.191-0.286-0.191h-26.818z"></path>
</symbol>
<symbol id="im-grid" viewBox="0 0 32 32">
<title>grid</title>
<path d="M8.966 11.764h-1.828c-0.366 0-0.684-0.302-0.684-0.684v-1.812c0-0.366 0.302-0.684 0.684-0.684h1.828c0.366 0 0.684 0.302 0.684 0.684v1.828c-0.016 0.366-0.318 0.668-0.684 0.668z"></path>
<path d="M16.914 11.764h-1.828c-0.366 0-0.684-0.302-0.684-0.684v-1.812c0-0.366 0.302-0.684 0.684-0.684h1.828c0.366 0 0.684 0.302 0.684 0.684v1.828c-0.016 0.366-0.318 0.668-0.684 0.668z"></path>
<path d="M24.862 11.764h-1.828c-0.366 0-0.684-0.302-0.684-0.684v-1.812c0-0.366 0.302-0.684 0.684-0.684h1.828c0.366 0 0.684 0.302 0.684 0.684v1.828c-0.016 0.366-0.318 0.668-0.684 0.668z"></path>
<path d="M8.966 23.416h-1.828c-0.366 0-0.684-0.302-0.684-0.684v-1.828c0-0.366 0.302-0.684 0.684-0.684h1.828c0.366 0 0.684 0.302 0.684 0.684v1.828c-0.016 0.382-0.318 0.684-0.684 0.684z"></path>
<path d="M16.914 23.416h-1.828c-0.366 0-0.684-0.302-0.684-0.684v-1.828c0-0.366 0.302-0.684 0.684-0.684h1.828c0.366 0 0.684 0.302 0.684 0.684v1.828c-0.016 0.382-0.318 0.684-0.684 0.684z"></path>
<path d="M24.862 23.416h-1.828c-0.366 0-0.684-0.302-0.684-0.684v-1.828c0-0.366 0.302-0.684 0.684-0.684h1.828c0.366 0 0.684 0.302 0.684 0.684v1.828c-0.016 0.382-0.318 0.684-0.684 0.684z"></path>
<path d="M8.966 17.613h-1.828c-0.366 0-0.684-0.302-0.684-0.684v-1.828c0-0.366 0.302-0.684 0.684-0.684h1.828c0.366 0 0.684 0.302 0.684 0.684v1.828c-0.016 0.382-0.318 0.684-0.684 0.684z"></path>
<path d="M16.914 17.613h-1.828c-0.366 0-0.684-0.302-0.684-0.684v-1.828c0-0.366 0.302-0.684 0.684-0.684h1.828c0.366 0 0.684 0.302 0.684 0.684v1.828c-0.016 0.382-0.318 0.684-0.684 0.684z"></path>
<path d="M24.862 17.613h-1.828c-0.366 0-0.684-0.302-0.684-0.684v-1.828c0-0.366 0.302-0.684 0.684-0.684h1.828c0.366 0 0.684 0.302 0.684 0.684v1.828c-0.016 0.382-0.318 0.684-0.684 0.684z"></path>
</symbol>
<symbol id="im-hanger" viewBox="0 0 32 32">
<title>hanger</title>
<path d="M28.538 29.712h-25.090c-1.331 0-2.498-0.801-2.973-2.037s-0.163-2.62 0.815-3.516c0.041-0.041 0.095-0.081 0.149-0.109l13.577-8.173v-3.611c0-0.516 0.407-0.923 0.923-0.923 0.991 0 1.914-0.407 2.593-1.127 0.679-0.733 1.018-1.684 0.95-2.675-0.122-1.765-1.534-3.177-3.286-3.299-1.005-0.068-1.955 0.272-2.675 0.95-0.733 0.679-1.127 1.602-1.127 2.593 0 0.516-0.407 0.923-0.923 0.923s-0.923-0.407-0.923-0.923c0-1.493 0.625-2.933 1.711-3.951 1.1-1.032 2.552-1.548 4.059-1.439 2.675 0.19 4.82 2.335 5.010 5.010 0.109 1.521-0.407 2.96-1.439 4.059-0.801 0.869-1.874 1.439-3.028 1.629v2.43l13.726 8.54c0.054 0.027 0.095 0.068 0.149 0.109 0.964 0.91 1.263 2.281 0.774 3.503-0.489 1.249-1.656 2.037-2.973 2.037zM2.485 25.585c-0.557 0.57-0.367 1.235-0.285 1.426 0.081 0.204 0.407 0.855 1.263 0.855h25.090c0.855 0 1.181-0.652 1.249-0.855 0.081-0.19 0.272-0.855-0.272-1.426l-13.305-8.282-13.74 8.282z"></path>
</symbol>
<symbol id="im-home" viewBox="0 0 32 32">
<title>home</title>
<path d="M27.332 29.659h-9.432c-0.516 0-0.923-0.421-0.923-0.923v-4.736h-1.913v4.736c0 0.516-0.421 0.923-0.923 0.923h-9.445c-0.516 0-0.923-0.421-0.923-0.923v-8.509h-2.85c-0.516 0-0.923-0.421-0.923-0.923v-0.95c0-0.244 0.095-0.475 0.271-0.651l15.077-15.091c0.176-0.176 0.407-0.271 0.651-0.271s0.475 0.095 0.651 0.271l4.071 4.071v-2.47c0-0.516 0.421-0.923 0.923-0.923h3.773c0.516 0 0.923 0.421 0.923 0.923v8.102l5.388 5.388c0.176 0.176 0.271 0.407 0.271 0.651v0.936c0 0.516-0.421 0.923-0.923 0.923h-2.85v8.509c0.027 0.516-0.394 0.936-0.896 0.936zM18.823 27.8h7.573v-8.495c0-0.516 0.421-0.923 0.923-0.923h2.483l-5.021-5.021c-0.176-0.176-0.271-0.407-0.271-0.651v-7.573h-1.913v3.786c0 0.38-0.231 0.719-0.57 0.855-0.353 0.149-0.746 0.068-1.004-0.204l-5.008-5.008-13.802 13.802h2.483c0.516 0 0.923 0.421 0.923 0.923v8.509h7.573v-4.736c0-0.516 0.421-0.923 0.923-0.923h3.773c0.516 0 0.923 0.421 0.923 0.923v4.736z"></path>
</symbol>
<symbol id="im-list" viewBox="0 0 32 32">
<title>list</title>
<path d="M7.44 8.568h17.105c0.588 0 1.081 0.493 1.081 1.081v0c0 0.588-0.493 1.081-1.081 1.081h-17.105c-0.588 0-1.081-0.493-1.081-1.081v0c0.016-0.604 0.493-1.081 1.081-1.081z"></path>
<path d="M7.44 14.927h17.105c0.588 0 1.081 0.493 1.081 1.081v0c0 0.588-0.493 1.081-1.081 1.081h-17.105c-0.588 0-1.081-0.493-1.081-1.081v0c0.016-0.604 0.493-1.081 1.081-1.081z"></path>
<path d="M7.44 21.286h17.105c0.588 0 1.081 0.493 1.081 1.081v0c0 0.588-0.493 1.081-1.081 1.081h-17.105c-0.588 0-1.081-0.493-1.081-1.081v0c0.016-0.604 0.493-1.081 1.081-1.081z"></path>
</symbol>
<symbol id="im-menu" viewBox="0 0 32 32">
<title>menu</title>
<path d="M2.577 15.003h26.832c0.547 0 1.005 0.458 1.005 1.005v0c0 0.547-0.458 1.005-1.005 1.005h-26.832c-0.547 0-1.005-0.458-1.005-1.005v0c0-0.561 0.458-1.005 1.005-1.005z"></path>
<path d="M2.577 24.129h26.832c0.547 0 1.005 0.458 1.005 1.005v0c0 0.547-0.458 1.005-1.005 1.005h-26.832c-0.547 0-1.005-0.458-1.005-1.005v0c0-0.561 0.458-1.005 1.005-1.005z"></path>
<path d="M2.577 5.876h26.832c0.547 0 1.005 0.458 1.005 1.005v0c0 0.547-0.458 1.005-1.005 1.005h-26.832c-0.547 0-1.005-0.458-1.005-1.005v0c0-0.561 0.458-1.005 1.005-1.005z"></path>
</symbol>
<symbol id="im-more-h" viewBox="0 0 32 32">
<title>more-h</title>
<path d="M27.843 11.906c2.25 0 4.094 1.844 4.094 4.094-0.017 2.25-1.844 4.094-4.094 4.094s-4.094-1.844-4.094-4.094c0-2.267 1.827-4.094 4.094-4.094zM27.843 17.81c0.998 0 1.81-0.812 1.81-1.81-0.017-0.998-0.812-1.81-1.81-1.81s-1.81 0.812-1.81 1.81c0 0.998 0.812 1.81 1.81 1.81z"></path>
<path d="M16 11.906c2.25 0 4.094 1.844 4.094 4.094-0.017 2.25-1.844 4.094-4.094 4.094s-4.094-1.844-4.094-4.094c0-2.267 1.827-4.094 4.094-4.094zM16 17.81c0.998 0 1.81-0.812 1.81-1.81-0.017-0.998-0.829-1.81-1.81-1.81-0.998 0-1.81 0.812-1.81 1.81s0.812 1.81 1.81 1.81z"></path>
<path d="M4.157 11.906c2.25 0 4.094 1.844 4.094 4.094s-1.844 4.094-4.094 4.094-4.094-1.844-4.094-4.094c0-2.267 1.827-4.094 4.094-4.094zM4.157 17.81c0.998 0 1.81-0.812 1.81-1.81s-0.812-1.81-1.81-1.81-1.81 0.812-1.81 1.81c0 0.998 0.812 1.81 1.81 1.81z"></path>
</symbol>
<symbol id="im-more-v" viewBox="0 0 32 32">
<title>more-v</title>
<path d="M20.094 27.843c0 2.25-1.844 4.094-4.094 4.094-2.25-0.017-4.094-1.844-4.094-4.094s1.844-4.094 4.094-4.094c2.267 0 4.094 1.827 4.094 4.094zM14.19 27.843c0 0.998 0.812 1.81 1.81 1.81 0.998-0.017 1.81-0.812 1.81-1.81s-0.812-1.81-1.81-1.81c-0.998 0-1.81 0.812-1.81 1.81z"></path>
<path d="M20.094 16c0 2.25-1.844 4.094-4.094 4.094-2.25-0.017-4.094-1.844-4.094-4.094s1.844-4.094 4.094-4.094c2.267 0 4.094 1.827 4.094 4.094zM14.19 16c0 0.998 0.812 1.81 1.81 1.81 0.998-0.017 1.81-0.829 1.81-1.81 0-0.998-0.812-1.81-1.81-1.81s-1.81 0.812-1.81 1.81z"></path>
<path d="M20.094 4.157c0 2.25-1.844 4.094-4.094 4.094s-4.094-1.844-4.094-4.094 1.844-4.094 4.094-4.094c2.267 0 4.094 1.827 4.094 4.094zM14.19 4.157c0 0.998 0.812 1.81 1.81 1.81s1.81-0.812 1.81-1.81-0.812-1.81-1.81-1.81c-0.998 0-1.81 0.812-1.81 1.81z"></path>
</symbol>
<symbol id="im-percent" viewBox="0 0 32 32">
<title>percent</title>
<path d="M14.422 13.322c0.931-1.004 1.439-2.346 1.439-3.796 0-2.745-1.959-5.525-5.695-5.525-1.741 0-3.216 0.604-4.256 1.729-0.919 1.004-1.427 2.346-1.427 3.796 0 2.745 1.947 5.525 5.671 5.525 1.753 0 3.228-0.605 4.268-1.729zM10.154 6.575c2.055 0 2.986 1.535 2.986 2.962 0 0.774-0.266 1.487-0.738 2.019-0.532 0.592-1.294 0.895-2.225 0.895-2.104 0-3.059-1.536-3.059-2.962 0-1.451 0.943-2.914 3.035-2.914z"></path>
<path d="M23.768 6.14c-0.339 0.012-0.798 0.218-1.028 0.472l-16.842 18.716c-0.23 0.254-0.060 0.605 0.278 0.605h2.2c0.339 0 0.798-0.206 1.028-0.459l16.746-18.728c0.23-0.254 0.218-0.665-0.351-0.665l-2.031 0.060z"></path>
<path d="M21.93 17.155c-1.705 0-3.156 0.592-4.171 1.705-0.907 0.979-1.403 2.309-1.403 3.724 0 2.696 1.91 5.417 5.562 5.417 1.717 0 3.168-0.592 4.195-1.693 0.907-0.979 1.403-2.309 1.403-3.724 0-2.708-1.91-5.429-5.586-5.429zM21.955 25.497c-2.043 0-2.986-1.535-2.986-2.962 0-0.774 0.266-1.499 0.738-2.031 0.532-0.592 1.294-0.907 2.213-0.907 2.043 0 2.986 1.535 2.986 2.962 0 0.774-0.266 1.499-0.738 2.031-0.52 0.592-1.282 0.907-2.213 0.907z"></path>
</symbol>
<symbol id="im-percent-wide" viewBox="0 0 216 195">
<title>percent-wide</title>
<path fill-rule="evenodd" clip-rule="evenodd" d="M0 102.172C8.52534 107.908 18.9995 110.776 31.4225 110.776C48.3286 110.776 61.6255 105.464 71.3133 94.8413C81.0011 84.2184 85.845 68.8532 85.845 48.7456C85.845 29.0173 81.0011 13.8418 71.3133 3.21886C70.2989 2.08662 69.2448 1.01367 68.1512 3.888e-08L2 0C0.895431 0 6.4822e-09 0.895427 6.4822e-09 2L0 102.172ZM216 80.2452V185.979C207.438 191.993 196.726 195 183.862 195C166.956 195 153.754 189.689 144.257 179.066C134.759 168.253 130.01 152.793 130.01 132.685C130.01 112.957 134.759 97.7816 144.257 87.1587C153.754 76.5358 166.956 71.2244 183.862 71.2244C196.726 71.2244 207.438 74.2313 216 80.2452ZM139.53 0H182.569L70.4585 193.008H27.1485L139.53 0ZM41.1103 72.6471C39.2107 77.01 35.9814 79.1915 31.4225 79.1915C27.2434 79.1915 24.1092 76.9152 22.0196 72.3625C20.1201 67.8098 19.1703 59.9375 19.1703 48.7456C19.1703 37.933 20.1201 30.2503 22.0196 25.6977C24.1092 20.9553 27.2434 18.5841 31.4225 18.5841C35.6015 18.5841 38.7358 20.9553 40.8253 25.6977C42.9148 30.2503 43.9596 37.933 43.9596 48.7456C43.9596 60.1272 43.0098 68.0944 41.1103 72.6471ZM193.265 156.587C191.366 161.14 188.231 163.416 183.862 163.416C179.683 163.416 176.549 161.14 174.46 156.587C172.56 152.034 171.61 144.162 171.61 132.97C171.61 122.157 172.56 114.475 174.46 109.922C176.549 105.18 179.683 102.808 183.862 102.808C188.041 102.808 191.176 105.18 193.265 109.922C195.355 114.475 196.4 122.157 196.4 132.97C196.4 144.162 195.355 152.034 193.265 156.587Z" />
</symbol>
<symbol id="im-scissors" viewBox="0 0 32 32">
<title>scissors</title>
<path d="M24.1 16.777c-2.354 0-4.361 1.47-5.197 3.536l-1.661-2.628 7.312-11.661c0.346-0.597 0.179-1.302-0.346-1.589-0.526-0.346-1.243-0.179-1.589 0.346l-6.619 10.538-6.643-10.55c-0.347-0.526-1.063-0.705-1.589-0.346-0.526 0.299-0.705 1.004-0.346 1.589l7.312 11.661-1.661 2.628c-0.801-2.055-2.843-3.524-5.197-3.524-3.082 0-5.579 2.509-5.579 5.579 0 3.082 2.509 5.579 5.579 5.579 2.127 0 3.978-1.195 4.922-2.939l3.202-5.066 3.202 5.066c0.944 1.744 2.796 2.939 4.922 2.939 3.082 0 5.579-2.509 5.579-5.579 0-3.082-2.521-5.579-5.603-5.579zM7.876 25.594c-1.792 0-3.262-1.458-3.262-3.262 0-1.792 1.458-3.262 3.262-3.262s3.262 1.458 3.262 3.262c0 1.816-1.47 3.262-3.262 3.262zM24.1 25.594c-1.792 0-3.262-1.458-3.262-3.262 0-1.792 1.458-3.262 3.262-3.262s3.262 1.458 3.262 3.262c0 1.816-1.458 3.262-3.262 3.262z"></path>
</symbol>
<symbol id="im-truck" viewBox="0 0 24 24">
<title>truck</title>
<path d="M18.1258 14.2688C16.4577 14.2688 15.1006 15.6259 15.1006 17.294C15.1006 18.9622 16.4577 20.3192 18.1258 20.3192C19.7942 20.3192 21.151 18.9622 21.151 17.294C21.151 15.6259 19.7939 14.2688 18.1258 14.2688ZM18.1258 18.8066C17.2916 18.8066 16.6132 18.1282 16.6132 17.294C16.6132 16.4598 17.2916 15.7814 18.1258 15.7814C18.96 15.7814 19.6384 16.4598 19.6384 17.294C19.6384 18.1283 18.96 18.8066 18.1258 18.8066Z" />
<path d="M7.78987 14.2688C6.12173 14.2688 4.76465 15.6259 4.76465 17.294C4.76465 18.9622 6.12173 20.3192 7.78987 20.3192C9.45801 20.3192 10.8151 18.9622 10.8151 17.294C10.8151 15.6259 9.45801 14.2688 7.78987 14.2688ZM7.78987 18.8066C6.95568 18.8066 6.27726 18.1282 6.27726 17.294C6.27726 16.4598 6.95568 15.7814 7.78987 15.7814C8.62382 15.7814 9.30248 16.4598 9.30248 17.294C9.30248 18.1283 8.62405 18.8066 7.78987 18.8066Z" />
<path d="M20.163 5.60972C20.0344 5.35435 19.773 5.19324 19.4871 5.19324H15.5039V6.70585H19.0207L21.0801 10.802L22.4319 10.1223L20.163 5.60972Z" />
<path d="M15.8575 16.5631H10.1348V18.0757H15.8575V16.5631Z" />
<path d="M5.52067 16.5631H2.89886C2.48111 16.5631 2.14258 16.9017 2.14258 17.3194C2.14258 17.7371 2.48116 18.0757 2.89886 18.0757H5.52072C5.93847 18.0757 6.277 17.7371 6.277 17.3194C6.277 16.9016 5.93842 16.5631 5.52067 16.5631Z" />
<path d="M23.8409 11.9395L22.3533 10.0235C22.2103 9.83896 21.9897 9.73105 21.756 9.73105H16.2602V4.43695C16.2602 4.0192 15.9216 3.68066 15.5039 3.68066H2.89886C2.48111 3.68066 2.14258 4.01924 2.14258 4.43695C2.14258 4.85465 2.48116 5.19323 2.89886 5.19323H14.7476V10.4873C14.7476 10.9051 15.0862 11.2436 15.5039 11.2436H21.3857L22.4871 12.6624V16.5629H20.3946C19.9769 16.5629 19.6383 16.9015 19.6383 17.3192C19.6383 17.737 19.9769 18.0755 20.3946 18.0755H23.2434C23.6611 18.0755 23.9996 17.7369 23.9997 17.3192V12.4034C23.9997 12.2354 23.9437 12.0721 23.8409 11.9395Z" />
<path d="M5.47065 12.7312H1.99163C1.57388 12.7312 1.23535 13.0698 1.23535 13.4875C1.23535 13.9052 1.57393 14.2438 1.99163 14.2438H5.4706C5.88835 14.2438 6.22688 13.9052 6.22688 13.4875C6.22693 13.0698 5.88835 12.7312 5.47065 12.7312Z" />
<path d="M7.21008 9.75623H0.756281C0.338578 9.75623 0 10.0948 0 10.5126C0 10.9303 0.338578 11.2688 0.756281 11.2688H7.21008C7.62783 11.2688 7.96636 10.9303 7.96636 10.5126C7.96636 10.0949 7.62783 9.75623 7.21008 9.75623Z" />
<path d="M8.44543 6.78149H1.99163C1.57388 6.78149 1.23535 7.12007 1.23535 7.53778C1.23535 7.95553 1.57393 8.29406 1.99163 8.29406H8.44543C8.86318 8.29406 9.20171 7.95548 9.20171 7.53778C9.20176 7.12007 8.86318 6.78149 8.44543 6.78149Z" />
</symbol>
<symbol id="im-truck-wide" viewBox="0 0 148 104">
<title>truck-wide</title>
<path d="M111.777 65.992C101.49 65.992 93.1218 74.3607 93.1218 84.6476C93.1218 94.9344 101.49 103.303 111.777 103.303C122.066 103.303 130.433 94.9344 130.433 84.6476C130.433 74.3607 122.064 65.992 111.777 65.992ZM111.777 93.9753C106.633 93.9753 102.45 89.7917 102.45 84.6476C102.45 79.5034 106.633 75.3198 111.777 75.3198C116.921 75.3198 121.105 79.5034 121.105 84.6476C121.105 89.792 116.921 93.9753 111.777 93.9753Z" />
<path d="M48.0379 65.992C37.751 65.992 29.3824 74.3607 29.3824 84.6476C29.3824 94.9344 37.751 103.303 48.0379 103.303C58.3247 103.303 66.6934 94.9344 66.6934 84.6476C66.6934 74.3607 58.3247 65.992 48.0379 65.992ZM48.0379 93.9753C42.8937 93.9753 38.7101 89.7917 38.7101 84.6476C38.7101 79.5034 42.8937 75.3198 48.0379 75.3198C53.1806 75.3198 57.3656 79.5034 57.3656 84.6476C57.3656 89.792 53.182 93.9753 48.0379 93.9753Z" />
<path d="M124.34 12.5937C123.547 11.0189 121.935 10.0254 120.172 10.0254H95.6091V19.3532H117.296L129.996 44.6127L138.332 40.4213L124.34 12.5937Z" />
<path d="M97.7858 80.1383H62.4958V89.4661H97.7858V80.1383Z" />
<path d="M34.046 80.1383H17.8782C15.3021 80.1383 13.2145 82.2262 13.2145 84.8021C13.2145 87.3782 15.3024 89.4658 17.8782 89.4658H34.0463C36.6224 89.4658 38.7101 87.3779 38.7101 84.8021C38.7101 82.226 36.6222 80.1383 34.046 80.1383Z" />
<path d="M147.021 51.6266L137.847 39.8115C136.966 38.6734 135.605 38.008 134.164 38.008H100.273V5.361C100.273 2.78487 98.1852 0.697266 95.6094 0.697266H17.8782C15.3021 0.697266 13.2145 2.78516 13.2145 5.361C13.2145 7.93683 15.3024 10.0247 17.8782 10.0247H90.9454V42.6717C90.9454 45.2479 93.0333 47.3355 95.6091 47.3355H131.88L138.672 56.0848V80.138H125.769C123.193 80.138 121.105 82.2259 121.105 84.8017C121.105 87.3779 123.193 89.4655 125.769 89.4655H143.336C145.912 89.4655 148 87.3776 148 84.8017V54.4872C148 53.4518 147.655 52.4444 147.021 51.6266Z" />
<path d="M33.7353 56.5076H12.2814C9.70524 56.5076 7.61763 58.5955 7.61763 61.1713C7.61763 63.7475 9.70553 65.8351 12.2814 65.8351H33.735C36.3111 65.8351 38.3987 63.7472 38.3987 61.1713C38.399 58.5955 36.3111 56.5076 33.7353 56.5076Z" />
<path d="M44.4621 38.1639H4.66373C2.0879 38.1639 0 40.2518 0 42.8279C0 45.404 2.0879 47.4916 4.66373 47.4916H44.4621C47.0383 47.4916 49.1259 45.4037 49.1259 42.8279C49.1259 40.2521 47.0383 38.1639 44.4621 38.1639Z" />
<path d="M52.0798 19.8203H12.2814C9.70524 19.8203 7.61763 21.9082 7.61763 24.484C7.61763 27.0602 9.70553 29.1478 12.2814 29.1478H52.0798C54.6559 29.1478 56.7435 27.0599 56.7435 24.484C56.7438 21.9082 54.6559 19.8203 52.0798 19.8203Z" />
</symbol>
<symbol id="im-search" viewBox="0 0 32 32">
<title>search</title>
<path d="M12.41 0.047c-6.831 0-12.41 5.563-12.41 12.41s5.563 12.41 12.41 12.41c2.948 0 5.69-0.998 7.925-2.9l0.032-0.032 9.7 9.7c0.206 0.206 0.46 0.317 0.761 0.317 0.285 0 0.571-0.111 0.761-0.317 0.412-0.412 0.412-1.11 0-1.522l-9.716-9.716 0.032-0.032c1.87-2.235 2.9-5.056 2.9-7.925 0.016-6.831-5.563-12.394-12.394-12.394zM12.41 22.696c-5.658 0-10.255-4.596-10.255-10.255s4.596-10.255 10.255-10.255 10.255 4.596 10.255 10.255-4.596 10.255-10.255 10.255z"></path>
</symbol>
<symbol id="im-settings" viewBox="0 0 32 32">
<title>settings</title>
<path d="M15.976 32c-0.62 0-1.24-0.032-1.844-0.111-1.002-0.111-1.733-1.002-1.685-2.003 0.048-0.938-0.493-1.828-1.367-2.194-0.811-0.334-1.908-0.095-2.512 0.572-0.684 0.747-1.828 0.843-2.607 0.207-0.938-0.747-1.796-1.621-2.528-2.559-0.604-0.779-0.525-1.908 0.207-2.575 0.699-0.636 0.922-1.637 0.572-2.496-0.35-0.843-1.176-1.399-2.051-1.383-0.89 0.016-1.955-0.636-2.067-1.685-0.143-1.208-0.127-2.432 0-3.64 0.127-1.002 0.938-1.701 1.939-1.685 1.017 0 1.908-0.54 2.241-1.367 0.366-0.874 0.143-1.876-0.572-2.512-0.747-0.684-0.827-1.812-0.207-2.607 0.763-0.938 1.621-1.812 2.591-2.559 0.779-0.604 1.924-0.509 2.575 0.223 0.588 0.636 1.701 0.89 2.496 0.572 0.858-0.35 1.415-1.224 1.383-2.146-0.016-0.986 0.731-1.844 1.717-1.955 1.192-0.127 2.4-0.127 3.593 0.016 1.002 0.111 1.733 1.002 1.685 2.003-0.048 0.938 0.493 1.828 1.367 2.194 0.811 0.334 1.924 0.095 2.512-0.572 0.668-0.747 1.812-0.843 2.607-0.207 0.938 0.747 1.78 1.606 2.543 2.559 0.62 0.779 0.525 1.908-0.207 2.575-0.684 0.636-0.922 1.637-0.572 2.496 0.35 0.843 1.16 1.383 2.098 1.383 0.89 0 1.908 0.652 2.019 1.685 0 0 0 0 0 0 0.143 1.208 0.127 2.432 0 3.64-0.111 1.002-1.002 1.749-1.987 1.685h-0.143c-0.89 0-1.717 0.556-2.051 1.367-0.366 0.874-0.143 1.876 0.572 2.512 0.747 0.668 0.843 1.812 0.207 2.607-0.763 0.954-1.637 1.812-2.591 2.559-0.795 0.62-1.908 0.525-2.575-0.207-0.588-0.652-1.685-0.906-2.496-0.572-0.858 0.35-1.415 1.208-1.383 2.146 0.032 0.986-0.715 1.844-1.701 1.955-0.604 0.048-1.192 0.079-1.78 0.079zM14.593 30.013c0 0 0 0 0 0s0 0 0 0zM14.609 29.79c0.89 0.095 1.796 0.095 2.671 0 0.032-1.733 1.097-3.322 2.702-3.99 1.574-0.636 3.529-0.238 4.737 0.954 0.699-0.572 1.351-1.208 1.924-1.908-1.24-1.256-1.621-3.148-0.938-4.769 0.668-1.606 2.289-2.687 4.038-2.687 0 0 0.016 0 0.016 0 0.095-0.89 0.095-1.812 0-2.718-1.765-0.032-3.338-1.097-4.006-2.718s-0.286-3.481 0.938-4.737c-0.572-0.699-1.192-1.335-1.876-1.908-1.224 1.208-3.195 1.606-4.769 0.938-1.606-0.652-2.671-2.273-2.655-4.038-0.89-0.095-1.796-0.095-2.671 0-0.032 1.749-1.097 3.322-2.718 3.99-1.574 0.636-3.529 0.238-4.737-0.954-0.699 0.572-1.351 1.208-1.923 1.908 1.24 1.256 1.621 3.132 0.938 4.769-0.668 1.574-2.241 2.607-4.054 2.671-0.095 0.89-0.095 1.812 0 2.718 0 0 0.016 0 0.016 0 1.717 0 3.322 1.081 3.99 2.718 0.668 1.621 0.286 3.481-0.938 4.737 0.556 0.699 1.192 1.335 1.876 1.908 1.224-1.208 3.195-1.606 4.769-0.938 1.621 0.668 2.671 2.289 2.671 4.054zM5.135 24.592c0 0 0 0 0 0s0 0 0 0zM29.854 14.689v0 0zM29.759 14.466c0 0 0 0 0 0s0 0 0 0v0zM26.881 7.074c0 0 0 0 0 0s0 0 0 0zM17.391 1.987c0 0 0 0 0 0s0 0 0 0zM16.024 22.080c-3.338 0-6.057-2.718-6.057-6.057s2.718-6.057 6.057-6.057 6.057 2.718 6.057 6.057-2.718 6.057-6.057 6.057zM16.024 12.129c-2.146 0-3.911 1.749-3.911 3.911 0 2.146 1.749 3.911 3.911 3.911 2.146 0 3.911-1.749 3.911-3.911-0.016-2.162-1.765-3.911-3.911-3.911z"></path>
</symbol>
<symbol id="im-share" viewBox="0 0 32 32">
<title>share</title>
<path d="M25.196 20.491c-1.542 0-2.989 0.604-4.070 1.685-0.175 0.175-0.35 0.366-0.509 0.572l-8.314-5.055c0.175-0.556 0.27-1.145 0.27-1.717 0-0.588-0.095-1.16-0.27-1.717l8.33-5.007c1.097 1.447 2.766 2.273 4.578 2.273 3.179 0 5.755-2.575 5.755-5.755s-2.575-5.755-5.755-5.755-5.755 2.575-5.755 5.755c0 0.556 0.079 1.113 0.238 1.653l-8.362 5.007c-1.097-1.399-2.75-2.21-4.531-2.21-3.179 0-5.755 2.575-5.755 5.755s2.575 5.755 5.755 5.755c1.78 0 3.434-0.811 4.531-2.21l8.346 5.071c-0.159 0.541-0.238 1.097-0.238 1.653 0 1.542 0.604 2.989 1.685 4.070s2.528 1.685 4.070 1.685 2.989-0.604 4.070-1.685c1.081-1.081 1.685-2.528 1.685-4.070s-0.604-2.989-1.685-4.070c-1.097-1.097-2.528-1.685-4.070-1.685zM25.196 2.067c2.035 0 3.704 1.653 3.704 3.704s-1.653 3.704-3.704 3.704-3.704-1.685-3.704-3.72 1.653-3.688 3.704-3.688zM6.804 19.68c-2.035 0-3.704-1.653-3.704-3.704s1.669-3.704 3.704-3.704 3.704 1.653 3.704 3.704-1.669 3.704-3.704 3.704zM27.803 28.852c-0.699 0.699-1.621 1.081-2.607 1.081s-1.924-0.382-2.607-1.081c-0.699-0.699-1.081-1.621-1.081-2.623 0-0.986 0.382-1.924 1.081-2.607 0.699-0.699 1.621-1.081 2.607-1.081s1.924 0.382 2.607 1.081c0.699 0.699 1.081 1.621 1.081 2.607 0 1.002-0.382 1.924-1.081 2.623z"></path>
</symbol>
<symbol id="im-social" viewBox="0 0 32 32">
<title>social</title>
<path d="M29.181 23.631l-4.966-2.483c-0.336-0.161-0.54-0.497-0.54-0.862v-1.621c0.102-0.117 0.204-0.263 0.307-0.409 0.643-0.891 1.154-1.899 1.534-2.965 0.789-0.438 1.285-1.271 1.285-2.162v-2.074c0-0.54-0.19-1.081-0.526-1.504v-2.6c0.044-0.394 0.117-2.191-1.183-3.681-1.154-1.315-2.98-1.972-5.448-1.972s-4.309 0.657-5.448 1.972c-0.628 0.73-0.935 1.519-1.081 2.176-0.832-0.336-1.782-0.511-2.819-0.511-4.849 0-6.061 3.651-6.12 5.068v2.249c-0.365 0.409-0.54 0.876-0.54 1.358v1.796c0 0.628 0.263 1.227 0.73 1.665 0.438 1.519 1.358 2.673 1.84 3.199v1.271c0 0.263-0.146 0.511-0.394 0.643l-3.476 2.176c-1.431 0.789-2.337 2.308-2.337 3.958v2.381h32v-2.512c0-1.942-1.081-3.681-2.819-4.557zM12.736 22.083l-2.804 1.534c-1.636 0.891-2.658 2.614-2.658 4.469v0.759h-5.419v-0.526c0-0.979 0.54-1.884 1.417-2.366l3.476-2.176c0.818-0.453 1.329-1.314 1.329-2.235v-2.045l-0.292-0.277c-0.015-0.015-1.314-1.241-1.68-2.892l-0.088-0.365-0.336-0.204c-0.117-0.073-0.205-0.219-0.205-0.351v-1.796c0-0.044 0.058-0.161 0.219-0.307l0.307-0.277v-2.965c0.015-0.248 0.336-3.286 4.279-3.286 1.066 0 1.986 0.219 2.717 0.672v2.089c-0.336 0.438-0.526 0.964-0.526 1.504v2.074c0 0.19 0.015 0.365 0.058 0.555 0.015 0.073 0.044 0.117 0.058 0.161 0 0.015 0.015 0.029 0.015 0.044l0.015 0.058c0.029 0.073 0.044 0.161 0.102 0.263l0.015 0.015c0.146 0.277 0.336 0.54 0.57 0.745 0.029 0.088 0.044 0.19 0.073 0.277l0.044 0.131c0 0.015 0.015 0.044 0.015 0.058l0.015 0.058c0.015 0.044 0.029 0.088 0.044 0.131 0.029 0.088 0.073 0.19 0.102 0.292 0.015 0.029 0.029 0.058 0.029 0.088l0.015 0.044c0.044 0.117 0.088 0.219 0.131 0.336l0.015 0.029c0.015 0.015 0.015 0.044 0.029 0.058l0.029 0.073c0.015 0.015 0.015 0.044 0.029 0.058l0.015 0.029c0.058 0.117 0.102 0.234 0.161 0.336l0.029 0.058c0.029 0.058 0.058 0.102 0.073 0.161l0.015 0.044c0.058 0.117 0.117 0.219 0.175 0.321 0.029 0.044 0.058 0.102 0.088 0.146 0.073 0.131 0.146 0.248 0.219 0.365l0.044 0.073c0.117 0.19 0.234 0.351 0.336 0.497l0.029 0.029v1.592c0 0.351-0.19 0.686-0.511 0.847l-1.271 0.686zM16.095 16.84c-0.131-0.204-0.248-0.424-0.351-0.643v0c-0.073-0.131-0.131-0.263-0.19-0.394l-0.029-0.058c-0.029-0.058-0.058-0.131-0.088-0.19l-0.044-0.102c-0.029-0.058-0.044-0.117-0.073-0.19-0.044-0.131-0.088-0.263-0.146-0.424l-0.044-0.117c-0.058-0.19-0.102-0.336-0.131-0.482l-0.088-0.365-0.321-0.204c-0.19-0.117-0.292-0.321-0.292-0.526v-2.089c0-0.175 0.073-0.336 0.219-0.467l0.307-0.277v-3.797l-0.015-0.015c0.015-0.424 0.117-1.285 0.745-2.016 0.774-0.891 2.147-1.344 4.060-1.344s3.272 0.453 4.060 1.329c0.876 0.979 0.745 2.264 0.745 2.322v3.52l0.307 0.277c0.146 0.131 0.219 0.292 0.219 0.467v2.074c0 0.277-0.19 0.511-0.453 0.599l-0.453 0.146-0.146 0.453c-0.336 1.037-0.818 2.001-1.417 2.863-0.146 0.204-0.292 0.394-0.409 0.526l-0.234 0.263v2.308c0 1.081 0.599 2.045 1.563 2.527l4.966 2.483c1.11 0.555 1.796 1.665 1.796 2.906v0.657h-21.032v-0.759c0-1.183 0.643-2.278 1.694-2.848l4.644-2.527c0.905-0.497 1.475-1.446 1.475-2.468v-2.235l-0.219-0.263c-0.015-0.015-0.044-0.044-0.073-0.088l-0.015-0.029c-0.015-0.029-0.044-0.058-0.058-0.088l-0.015-0.029c-0.088-0.131-0.19-0.263-0.277-0.394v-0.015c-0.073-0.088-0.131-0.175-0.19-0.277z"></path>
</symbol>
<symbol id="im-star" viewBox="0 0 32 32">
<title>star</title>
<path d="M24.757 31.096c-0.301 0-0.602-0.075-0.873-0.241l-7.876-4.743-7.876 4.743c-0.587 0.361-1.325 0.316-1.882-0.075-0.557-0.407-0.813-1.099-0.663-1.762l2.093-8.96-6.957-6.024c-0.512-0.452-0.723-1.16-0.497-1.807s0.783-1.114 1.476-1.175l9.156-0.783 3.584-8.448c0.256-0.632 0.873-1.039 1.566-1.039s1.295 0.407 1.566 1.039l3.584 8.448 9.156 0.783c0.678 0.060 1.265 0.512 1.476 1.175 0.211 0.648 0.015 1.37-0.497 1.807l-6.942 6.024 2.078 8.96c0.151 0.663-0.105 1.355-0.663 1.762-0.301 0.211-0.663 0.316-1.009 0.316zM24.937 29.094v0 0zM2.711 13.026l6.475 5.617c0.482 0.422 0.693 1.054 0.542 1.671l-1.943 8.343 7.334-4.427c0.542-0.331 1.22-0.331 1.762 0 0 0 0 0 0 0l7.334 4.427-1.943-8.343c-0.151-0.617 0.060-1.265 0.542-1.672l6.475-5.617-8.538-0.738c-0.632-0.060-1.175-0.452-1.416-1.039l-3.343-7.876-3.328 7.891c-0.241 0.587-0.798 0.979-1.416 1.039l-8.538 0.723zM15.827 25.991c0 0 0 0 0 0v0 0z"></path>
</symbol>
<symbol id="im-shirt" viewBox="0 0 32 32">
<title>shirt</title>
<path d="M22.401 30.228h-12.803c-1.341 0-2.428-1.087-2.428-2.428v-11.137c-0.282 0.113-0.593 0.184-0.917 0.184-0.635 0-1.27-0.254-1.722-0.706l-3.585-3.614c-0.946-0.946-0.946-2.484 0-3.43l6.564-6.578c0.494-0.494 1.2-0.748 1.906-0.692 0.056-0.014 0.113-0.014 0.183-0.014h1.821c0.833 0 1.595 0.409 2.033 1.115 0.409 0.621 1.426 1.045 2.541 1.045s2.131-0.423 2.541-1.045c0.452-0.692 1.214-1.115 2.033-1.115h1.835c0.056 0 0.127 0 0.184 0.014 0.056 0 0.127-0.014 0.184-0.014 0.649 0 1.256 0.254 1.722 0.706l6.564 6.564c0 0 0 0 0 0 0.946 0.946 0.946 2.484 0 3.43l-3.585 3.6c-0.452 0.452-1.073 0.706-1.722 0.706 0 0 0 0 0 0-0.311 0-0.621-0.056-0.918-0.184v11.137c0 1.369-1.087 2.456-2.428 2.456zM8.116 13.671c0.127 0 0.24 0.028 0.367 0.071 0.353 0.141 0.593 0.494 0.593 0.875v13.17c0 0.282 0.24 0.522 0.522 0.522h12.803c0.282 0 0.522-0.24 0.522-0.522v-13.156c0-0.381 0.226-0.734 0.593-0.875 0.353-0.141 0.762-0.071 1.045 0.212l0.833 0.833c0.099 0.099 0.226 0.155 0.367 0.155 0 0 0 0 0 0 0.141 0 0.268-0.056 0.367-0.155l3.585-3.6c0.198-0.198 0.198-0.536 0-0.734l-6.564-6.564c-0.099-0.099-0.226-0.155-0.367-0.155-0.014 0-0.042 0-0.071 0-0.085 0.014-0.155 0.014-0.24 0-0.014 0-0.042 0-0.056 0h-1.821c-0.184 0-0.339 0.085-0.438 0.24-0.762 1.186-2.343 1.906-4.136 1.906s-3.374-0.734-4.136-1.906c-0.099-0.155-0.254-0.24-0.438-0.24h-1.849c-0.014 0-0.042 0-0.071 0-0.071 0.014-0.155 0.014-0.24 0-0.155-0.014-0.325 0.042-0.438 0.155l-6.564 6.536c-0.198 0.198-0.198 0.536 0 0.734l3.599 3.6c0.099 0.099 0.226 0.155 0.367 0.155s0.268-0.056 0.367-0.155l0.819-0.819c0.183-0.183 0.438-0.282 0.678-0.282z"></path>
</symbol>
<symbol id="im-trends" viewBox="0 0 32 32">
<title>trends</title>
<path d="M25.562 21.238c0.334-0.334 0.413-0.827 0.191-1.24-1.637-3.211-3.434-7.122-3.577-8.075 0.159-0.731 0.938-4.26 2.178-6.518 0.27-0.509 0.095-1.145-0.397-1.431-0.095-0.048-2.035-1.192-4.149-1.78v-1.113c0-0.588-0.477-1.065-1.065-1.065h-5.484c-0.588 0-1.065 0.477-1.065 1.065v1.113c-2.098 0.588-4.054 1.717-4.149 1.78-0.493 0.286-0.684 0.922-0.397 1.431 1.24 2.257 2.019 5.786 2.178 6.518-0.143 0.954-1.939 4.88-3.593 8.075-0.207 0.413-0.127 0.922 0.191 1.24 1.765 1.765 6.375 2.321 8.489 2.48v6.136h-5.516c-0.588 0-1.065 0.477-1.065 1.065s0.477 1.065 1.065 1.065h13.21c0.588 0 1.065-0.477 1.065-1.065s-0.477-1.065-1.065-1.065h-5.532v-6.136c2.114-0.159 6.74-0.715 8.489-2.48zM8.568 20.157c1.272-2.528 3.418-6.979 3.418-8.314 0-0.064 0-0.143-0.016-0.207-0.032-0.159-0.715-3.561-1.955-6.295 0.858-0.429 2.21-1.017 3.465-1.272 0.509-0.095 0.858-0.54 0.858-1.049v-0.874h3.338v0.874c0 0.509 0.366 0.954 0.858 1.049 1.256 0.254 2.607 0.843 3.465 1.272-1.24 2.734-1.924 6.136-1.955 6.295-0.016 0.064-0.016 0.143-0.016 0.207 0 1.335 2.146 5.771 3.418 8.314-0.636 0.334-1.796 0.779-3.911 1.113-1.701 0.27-3.243 0.366-3.529 0.366-0.27-0.016-1.812-0.095-3.529-0.366-2.114-0.334-3.291-0.763-3.911-1.113z"></path>
</symbol>
<symbol id="im-instagram" viewBox="0 0 32 32">
<title>instagram</title>
<path d="M22.463 0.008h-12.926c-5.261 0-9.537 4.276-9.537 9.521v12.926c0 5.261 4.276 9.537 9.537 9.537h12.926c5.261 0 9.537-4.276 9.537-9.537v-12.926c0-5.245-4.276-9.521-9.537-9.521zM28.789 22.471c0 3.486-2.824 6.31-6.31 6.31h-12.942c-3.486 0-6.31-2.824-6.31-6.31v-12.942c0-3.486 2.824-6.31 6.31-6.31h12.926c3.486 0 6.31 2.824 6.31 6.31l0.016 12.942z"></path>
<path d="M16.008 7.722c-4.567 0-8.278 3.712-8.278 8.278s3.712 8.278 8.278 8.278 8.278-3.712 8.278-8.278-3.728-8.278-8.278-8.278zM16.008 21.051c-2.792 0-5.051-2.259-5.051-5.051s2.259-5.051 5.051-5.051c2.792 0 5.051 2.259 5.051 5.051s-2.259 5.051-5.051 5.051z"></path>
<path d="M26.271 7.786c0 1.096-0.889 1.985-1.985 1.985s-1.985-0.889-1.985-1.985c0-1.096 0.889-1.985 1.985-1.985s1.985 0.889 1.985 1.985z"></path>
</symbol>
<symbol id="im-facebook" viewBox="0 0 32 32">
<title>facebook</title>
<path d="M12.289 7.427c0 0.706 0 3.853 0 3.853h-2.822v4.713h2.822v13.999h5.8v-13.999h3.895c0 0 0.367-2.258 0.536-4.728-0.508 0-4.403 0-4.403 0s0-2.738 0-3.218c0-0.48 0.635-1.129 1.256-1.129s1.933 0 3.161 0c0-0.635 0-2.851 0-4.911-1.623 0-3.486 0-4.29 0-6.096 0-5.955 4.713-5.955 5.419z"></path>
</symbol>
<symbol id="im-pinterest" viewBox="0 0 32 32">
<title>pinterest</title>
<path d="M24.161 4.621c-1.924-1.853-4.597-2.871-7.525-2.871-4.455 0-7.199 1.825-8.713 3.352-1.867 1.895-2.942 4.413-2.942 6.888 0 3.126 1.301 5.516 3.494 6.407 0.141 0.057 0.297 0.085 0.438 0.085 0.467 0 0.82-0.297 0.948-0.792 0.071-0.283 0.24-0.962 0.325-1.259 0.156-0.594 0.028-0.877-0.311-1.273-0.636-0.75-0.934-1.627-0.934-2.786 0-3.423 2.546-7.058 7.27-7.058 3.748 0 6.068 2.136 6.068 5.559 0 2.164-0.467 4.172-1.315 5.643-0.594 1.018-1.627 2.249-3.211 2.249-0.693 0-1.301-0.283-1.697-0.778-0.368-0.467-0.495-1.061-0.339-1.697 0.17-0.707 0.396-1.443 0.608-2.15 0.396-1.301 0.778-2.532 0.778-3.508 0-1.683-1.032-2.801-2.56-2.801-1.952 0-3.479 1.98-3.479 4.512 0 1.245 0.325 2.164 0.481 2.532-0.24 1.047-1.711 7.228-1.98 8.402-0.156 0.679-1.131 6.068 0.467 6.492 1.796 0.481 3.395-4.766 3.564-5.346 0.127-0.481 0.594-2.305 0.877-3.423 0.863 0.834 2.263 1.4 3.621 1.4 2.56 0 4.866-1.146 6.478-3.239 1.57-2.023 2.433-4.851 2.433-7.963 0.014-2.447-1.018-4.837-2.843-6.577z"></path>
</symbol>
<symbol id="im-twitter" viewBox="0 0 32 32">
<title>twitter</title>
<path d="M31.236 5.955c-0.501 0.224-1.014 0.408-1.541 0.566 0.619-0.711 1.093-1.528 1.383-2.437 0.066-0.198 0-0.422-0.171-0.553s-0.395-0.145-0.58-0.039c-1.12 0.659-2.319 1.146-3.583 1.423-1.278-1.252-3.004-1.95-4.795-1.95-3.781 0-6.851 3.070-6.851 6.851 0 0.303 0.013 0.593 0.053 0.883-4.69-0.435-9.051-2.74-12.041-6.416-0.105-0.132-0.277-0.198-0.435-0.184-0.171 0.013-0.316 0.105-0.408 0.25-0.606 1.041-0.922 2.226-0.922 3.438 0 1.647 0.593 3.215 1.634 4.44-0.316-0.105-0.619-0.25-0.922-0.408-0.158-0.092-0.356-0.092-0.501 0-0.158 0.092-0.25 0.25-0.264 0.435 0 0.026 0 0.066 0 0.092 0 2.464 1.331 4.677 3.359 5.889-0.171-0.013-0.343-0.040-0.527-0.079s-0.356 0.026-0.487 0.158c-0.119 0.132-0.158 0.329-0.105 0.501 0.751 2.345 2.688 4.071 5.019 4.585-1.937 1.212-4.15 1.844-6.482 1.844-0.487 0-0.975-0.026-1.449-0.079-0.237-0.026-0.461 0.105-0.54 0.343-0.079 0.224 0 0.474 0.211 0.606 2.991 1.91 6.442 2.925 9.986 2.925 6.969 0 11.33-3.294 13.767-6.047 3.030-3.438 4.769-7.997 4.769-12.489 0-0.184 0-0.382-0.013-0.567 1.199-0.896 2.226-1.989 3.070-3.241 0.132-0.184 0.119-0.448-0.040-0.619-0.145-0.158-0.382-0.224-0.593-0.119z"></path>
</symbol>
<symbol id="im-youtube" viewBox="0 0 32 32">
<title>youtube</title>
<path d="M30.741 6.678c-1.157-1.373-3.279-1.929-7.353-1.929h-14.775c-4.153 0-6.321 0.59-7.478 2.054-1.123 1.418-1.123 3.518-1.123 6.423v5.538c0 5.628 1.328 8.488 8.601 8.488h14.775c3.529 0 5.481-0.499 6.752-1.702 1.294-1.237 1.85-3.268 1.85-6.775v-5.549c0-3.064-0.091-5.175-1.248-6.548zM20.539 16.755l-6.706 3.506c-0.148 0.079-0.318 0.113-0.477 0.113-0.182 0-0.374-0.045-0.533-0.148-0.306-0.182-0.499-0.522-0.499-0.885v-6.979c0-0.363 0.193-0.692 0.499-0.885 0.306-0.182 0.692-0.204 1.010-0.034l6.706 3.484c0.34 0.182 0.556 0.533 0.556 0.919s-0.216 0.738-0.556 0.908z"></path>
</symbol>
<symbol id="im-google-plus" viewBox="0 0 32 32">
<title>google-plus</title>
<path d="M11.251 18.171h4.991c-0.876 2.475-3.248 4.259-6.033 4.239-3.372-0.021-6.157-2.722-6.291-6.095-0.144-3.609 2.753-6.59 6.342-6.59 1.64 0 3.135 0.619 4.259 1.65 0.268 0.237 0.67 0.248 0.938 0l1.836-1.722c0.289-0.268 0.289-0.722 0-1-1.784-1.691-4.187-2.743-6.827-2.795-5.631-0.134-10.385 4.486-10.426 10.127-0.041 5.682 4.548 10.292 10.22 10.292 5.455 0 9.91-4.27 10.209-9.653 0.010-0.072 0.010-2.351 0.010-2.351h-9.23c-0.382 0-0.68 0.309-0.68 0.68v2.526c0 0.382 0.309 0.691 0.68 0.691z"></path>
<path d="M28.947 14.51v-2.444c0-0.33-0.268-0.598-0.598-0.598h-2.063c-0.33 0-0.598 0.268-0.598 0.598v2.454h-2.454c-0.33 0-0.598 0.268-0.598 0.598v2.063c0 0.33 0.268 0.598 0.598 0.598h2.454v2.454c0 0.33 0.268 0.598 0.598 0.598h2.063c0.33 0 0.598-0.268 0.598-0.598v-2.454h2.454c0.33 0 0.598-0.268 0.598-0.598v-2.063c0-0.33-0.268-0.598-0.598-0.598l-2.454-0.010z"></path>
</symbol>
<symbol id="im-mobile" viewBox="0 0 32 32">
<title>mobile</title>
<path d="M20.764 30h-9.528c-1.627 0-2.949-1.321-2.949-2.949v-22.116c0-1.614 1.321-2.935 2.949-2.935h9.528c1.627 0 2.949 1.321 2.949 2.949v22.116c0 1.613-1.321 2.935-2.949 2.935zM11.236 3.906c-0.57 0-1.043 0.473-1.043 1.043v22.116c0 0.57 0.473 1.043 1.043 1.043h9.528c0.57 0 1.043-0.473 1.043-1.043v-22.116c0-0.57-0.473-1.043-1.043-1.043h-9.528z"></path>
<path d="M17.3 25.465c0 0.714-0.579 1.294-1.294 1.294s-1.294-0.579-1.294-1.294c0-0.714 0.579-1.294 1.294-1.294s1.294 0.579 1.294 1.294z"></path>
</symbol>
<symbol id="im-tablet" viewBox="0 0 32 32">
<title>tablet</title>
<path d="M24.221 2h-16.831c-1.627 0-2.949 1.321-2.949 2.935v21.727c0 1.836 1.502 3.338 3.338 3.338h16.441c1.836 0 3.338-1.502 3.338-3.338v-21.323c-0.014-1.836-1.502-3.338-3.338-3.338zM25.653 26.662c0 0.793-0.64 1.447-1.447 1.447h-16.427c-0.793 0-1.447-0.64-1.447-1.447v-21.727c0-0.57 0.473-1.043 1.043-1.043h16.831c0.793 0 1.447 0.64 1.447 1.447v21.323z"></path>
<path d="M17.294 25.465c0 0.714-0.579 1.294-1.294 1.294s-1.294-0.579-1.294-1.294c0-0.714 0.579-1.294 1.294-1.294s1.294 0.579 1.294 1.294z"></path>
</symbol>
<symbol id="im-computer" viewBox="0 0 32 32">
<title>computer</title>
<path d="M28.758 2.404h-25.516c-1.783 0-3.242 1.459-3.242 3.242v16.561c0 1.783 1.459 3.242 3.242 3.242h7.875l-0.648 0.77c-0.513 0.621-0.621 1.459-0.284 2.188s1.054 1.189 1.864 1.189h7.875c0.81 0 1.526-0.459 1.864-1.189s0.23-1.567-0.284-2.188l-0.648-0.77h7.875c1.783 0 3.242-1.459 3.242-3.242v-16.561c0.027-1.783-1.432-3.242-3.215-3.242zM1.837 5.646c0-0.77 0.621-1.405 1.405-1.405h25.516c0.77 0 1.405 0.621 1.405 1.405v11.522c0 0.743-0.608 1.351-1.351 1.351h-25.611c-0.743 0-1.351-0.608-1.351-1.351v-11.522zM18.614 25.611l1.486 1.797c0.054 0.068 0.068 0.149 0.027 0.23s-0.108 0.122-0.203 0.122h-7.862c-0.095 0-0.162-0.040-0.203-0.122s-0.027-0.162 0.027-0.23l1.486-1.797c0.041-0.054 0.081-0.108 0.108-0.162h5.025c0.040 0.054 0.068 0.108 0.108 0.162zM28.758 23.612h-25.516c-0.77 0-1.405-0.621-1.405-1.405v-2.148c0.405 0.189 0.864 0.297 1.351 0.297h25.597c0.486 0 0.946-0.108 1.351-0.297v2.148c0.013 0.77-0.608 1.405-1.378 1.405z"></path>
</symbol>
<symbol id="im-info" viewBox="0 0 32 32">
<title>info</title>
<path d="M15.992 32c-8.807 0-15.992-7.185-15.992-16.008s7.185-15.992 15.992-15.992 15.992 7.169 15.992 15.992-7.169 16.008-15.992 16.008zM15.992 2.146c-7.63 0-13.846 6.216-13.846 13.846s6.216 13.846 13.846 13.846c7.63 0 13.846-6.216 13.846-13.846 0.016-7.63-6.2-13.846-13.846-13.846z"></path>
<path d="M15.865 23.511h-0.079c-0.572 0-1.049-0.477-1.049-1.049v-9.045c0-0.572 0.477-1.049 1.049-1.049h0.079c0.572 0 1.049 0.477 1.049 1.049v9.045c0 0.572-0.477 1.049-1.049 1.049z"></path>
<path d="M16.898 9.506c0 0.597-0.484 1.081-1.081 1.081s-1.081-0.484-1.081-1.081c0-0.597 0.484-1.081 1.081-1.081s1.081 0.484 1.081 1.081z"></path>
</symbol>
<symbol id="im-copy" viewBox="0 0 32 32">
<title>copy</title>
<path d="M6 28h14.667v-18.667h-14.667zM6 6.667h14.667c1.473 0 2.667 1.194 2.667 2.667v0 18.667c0 1.473-1.194 2.667-2.667 2.667v0h-14.667c-1.473 0-2.667-1.194-2.667-2.667v0-18.667c0-1.473 1.194-2.667 2.667-2.667v0zM10 1.333h16c1.473 0 2.667 1.194 2.667 2.667v0 18.667h-2.667v-18.667h-16v-2.667z"></path>
</symbol>
<symbol id="im-raquo" viewBox="0 0 42 32">
<title>raquo</title>
<path fill="none" stroke="#fff" stroke-linejoin="round" stroke-linecap="butt" stroke-miterlimit="4" stroke-width="3.2" d="M12.8 28.8l12.8-12.8-12.8-12.8"></path>
<path fill="none" stroke="#fff" stroke-linejoin="round" stroke-linecap="butt" stroke-miterlimit="4" stroke-width="3.2" d="M25.6 28.8l12.8-12.8-12.8-12.8"></path>
</symbol>
<symbol id="im-return" viewBox="0 0 32 32">
<title>return</title>
<path fill="#48d597" d="M20.234 1.96c0.39-0.391 1.024-0.391 1.414 0l5.647 5.647c0.188 0.188 0.293 0.442 0.293 0.707s-0.105 0.52-0.293 0.707l-5.647 5.647c-0.391 0.391-1.024 0.391-1.414 0s-0.391-1.024 0-1.414l3.94-3.94h-10.422c-4.821 0-8.752 3.964-8.752 8.882s3.931 8.882 8.752 8.882h14.248c0.552 0 1 0.448 1 1s-0.448 1-1 1h-14.248c-5.951 0-10.752-4.885-10.752-10.882s4.802-10.882 10.752-10.882h10.422l-3.94-3.94c-0.391-0.391-0.391-1.024 0-1.414z" />
</symbol>
<symbol id="im-time" viewBox="0 0 39 32">
<title>time</title>
<path fill="#48d597" d="M32.505 6.427c-5.434-5.287-14.245-5.287-19.679 0-0.494 0.481-1.295 0.481-1.789 0s-0.494-1.26 0-1.741c6.422-6.248 16.835-6.248 23.257-0s6.422 16.379-0 22.628c-6.422 6.248-16.835 6.248-23.257 0-0.494-0.481-0.494-1.26 0-1.741s1.295-0.481 1.789 0c5.434 5.287 14.245 5.287 19.679 0s5.434-13.859 0-19.146z" />
<path fill="#48d597" d="M3.497 20.889c0-0.736 0.564-1.333 1.26-1.333h11.76c0.696 0 1.26 0.597 1.26 1.333s-0.564 1.333-1.26 1.333h-11.76c-0.696 0-1.26-0.597-1.26-1.333z" />
<path fill="#48d597" d="M3.497 10.222c0-0.736 0.553-1.333 1.236-1.333h8.239c0.682 0 1.236 0.597 1.236 1.333s-0.553 1.333-1.236 1.333h-8.239c-0.683 0-1.236-0.597-1.236-1.333z" />
<path fill="#48d597" d="M0 15.556c0-0.736 0.568-1.333 1.268-1.333h13.529c0.7 0 1.268 0.597 1.268 1.333s-0.568 1.333-1.268 1.333h-13.529c-0.7 0-1.268-0.597-1.268-1.333z" />
<path fill="#48d597" d="M22.667 6.929c0.736 0 1.333 0.597 1.333 1.333v8.264l4.854 4.045c0.566 0.471 0.642 1.312 0.171 1.878s-1.312 0.642-1.878 0.171l-5.813-4.844v-9.513c0-0.736 0.597-1.333 1.333-1.333z" />
</symbol>
<symbol id="im-clock" viewBox="0 0 32 32">
<title>clock</title>
<path fill="none" stroke="#8d47ff" stroke-linejoin="miter" stroke-linecap="butt" stroke-miterlimit="4" stroke-width="3" d="M30.5 16c0 8.008-6.492 14.5-14.5 14.5s-14.5-6.492-14.5-14.5c0-8.008 6.492-14.5 14.5-14.5s14.5 6.492 14.5 14.5z" />
<path fill="none" stroke="#8d47ff" stroke-linejoin="miter" stroke-linecap="round" stroke-miterlimit="4" stroke-width="3" d="M16 7v9l5 3" />
</symbol>
</defs>
</svg>
